<?xml version="1.0" standalone="no"?>
<!DOCTYPE svg PUBLIC "-//W3C//DTD SVG 20010904//EN"
 "http://www.w3.org/TR/2001/REC-SVG-20010904/DTD/svg10.dtd">
<svg version="1.0" xmlns="http://www.w3.org/2000/svg"
 width="300.000000pt" height="273.000000pt" viewBox="0 0 300.000000 273.000000"
 preserveAspectRatio="xMidYMid meet">
<metadata>
Created by potrace 1.10, written by Peter Selinger 2001-2011
</metadata>
<g transform="translate(0.000000,273.000000) scale(0.100000,-0.100000)"
fill="#000000" stroke="none">
<path d="M1212 2300 c2 -8 -17 -18 -52 -26 -30 -8 -64 -17 -75 -20 -11 -3 -28
-7 -37 -7 -9 -1 -14 -5 -12 -9 3 -4 -2 -8 -10 -8 -9 0 -31 -9 -51 -20 -20 -11
-40 -20 -46 -20 -6 0 -17 -6 -24 -12 -35 -31 -45 -38 -45 -31 0 4 -4 3 -8 -2
-4 -6 -24 -21 -44 -35 -21 -14 -38 -28 -38 -32 0 -5 -6 -8 -12 -8 -13 0 -111
-98 -154 -156 -15 -18 -31 -31 -37 -27 -5 3 -7 2 -4 -4 3 -5 -8 -32 -26 -59
-46 -71 -73 -123 -87 -169 -7 -22 -16 -44 -20 -50 -4 -5 -18 -50 -31 -100 -19
-73 -23 -120 -25 -250 -1 -96 2 -165 8 -172 6 -7 8 -26 6 -43 -3 -16 -2 -27 1
-25 4 5 47 -105 54 -140 4 -17 31 -80 36 -85 3 -3 12 -16 19 -29 12 -20 12
-25 0 -33 -10 -8 -9 -9 3 -5 11 4 23 -7 39 -36 13 -23 26 -44 30 -47 14 -12
68 -86 69 -95 0 -5 5 -10 9 -10 13 0 42 -32 35 -39 -4 -3 -2 -6 3 -6 6 0 19
-7 29 -15 107 -83 143 -109 163 -116 13 -5 20 -14 17 -20 -4 -6 -1 -10 6 -9
21 3 59 -11 59 -21 0 -5 3 -8 8 -7 4 1 24 -6 46 -15 21 -9 42 -17 47 -17 5 0
9 -5 9 -11 0 -5 4 -8 8 -5 5 3 42 -4 83 -14 218 -56 430 -42 652 43 37 14 67
24 67 21 0 -3 10 5 22 16 12 11 28 18 36 15 7 -2 10 0 7 5 -3 6 0 10 9 10 8 0
16 4 18 9 2 5 9 11 17 13 8 2 22 10 31 18 44 40 62 50 72 44 6 -4 8 -3 4 4 -3
6 5 19 19 29 39 27 105 96 143 151 13 18 28 29 34 25 7 -4 9 -1 6 8 -3 8 5 33
19 55 13 21 28 49 34 62 5 14 14 20 21 16 6 -4 8 -3 5 4 -9 14 3 43 14 36 5
-3 6 2 2 11 -3 10 -1 20 4 24 6 3 26 67 45 141 31 125 34 146 32 273 -1 75 -6
149 -11 164 -6 16 -16 53 -23 83 -16 75 -68 206 -101 255 -15 22 -25 43 -23
46 2 4 -3 9 -11 13 -8 3 -15 10 -15 16 0 9 -19 35 -48 66 -7 8 -11 14 -9 14 7
0 -110 112 -161 154 -24 20 -47 36 -50 36 -4 0 -20 11 -36 25 -16 14 -35 25
-43 25 -7 0 -13 5 -13 10 0 6 -7 10 -15 10 -8 0 -15 5 -15 10 0 6 -11 10 -24
10 -14 0 -28 5 -31 10 -3 6 -15 10 -27 10 -12 0 -18 5 -15 13 3 7 -5 12 -22
13 -14 1 -69 11 -121 22 -123 26 -219 32 -333 22 -64 -6 -95 -6 -105 2 -10 9
-12 8 -10 -2z m307 -20 c660 -68 1082 -710 881 -1340 -47 -148 -131 -281 -255
-406 -140 -141 -285 -225 -473 -276 -117 -31 -328 -36 -452 -10 -196 41 -359
125 -503 262 -327 310 -416 786 -222 1189 60 125 114 199 216 296 177 169 373
261 609 285 41 4 80 8 86 9 7 0 57 -4 113 -9z"/>
<path d="M1275 2246 c-219 -36 -383 -117 -537 -264 -141 -135 -237 -305 -280
-495 -26 -118 -28 -307 -3 -422 101 -473 536 -808 1015 -781 122 6 204 24 315
68 366 144 604 478 622 873 10 226 -52 437 -182 620 -56 78 -184 202 -259 250
-204 130 -469 188 -691 151z m290 -26 c365 -52 669 -319 782 -687 25 -81 27
-101 27 -263 0 -162 -2 -182 -27 -263 -51 -166 -128 -297 -242 -412 -118 -119
-270 -208 -440 -257 -67 -19 -104 -22 -235 -23 -131 0 -169 4 -249 24 -341 87
-612 367 -698 721 -13 56 -18 112 -17 220 1 127 5 156 28 235 53 177 131 311
250 431 218 217 517 317 821 274z"/>
<path d="M1323 1785 c-51 -22 -83 -79 -83 -148 0 -32 6 -72 13 -90 18 -42 107
-139 176 -191 29 -22 64 -49 77 -59 22 -17 23 -17 91 33 91 68 181 157 204
201 31 62 34 127 7 178 -31 60 -66 83 -130 89 -50 4 -57 1 -102 -33 l-48 -37
-27 25 c-14 13 -36 30 -48 36 -29 15 -91 13 -130 -4z m143 -46 c19 -11 41 -30
49 -42 9 -13 18 -18 23 -12 4 6 24 25 45 43 29 25 47 32 78 32 47 0 92 -23
110 -57 18 -33 14 -105 -9 -149 -30 -60 -199 -214 -233 -214 -8 0 -54 33 -103
73 -94 76 -156 162 -156 218 0 54 21 90 64 110 54 24 91 24 132 -2z"/>
<path d="M750 1266 c-103 -23 -117 -41 -107 -145 5 -57 35 -132 59 -148 7 -4
63 -6 123 -5 76 3 150 -3 240 -17 72 -11 163 -26 203 -32 140 -23 328 12 575
105 165 61 207 84 237 126 26 37 25 52 -5 80 -41 38 -105 33 -262 -20 l-132
-44 -158 32 c-401 80 -627 100 -773 68z m376 -36 c60 -11 183 -32 273 -45 249
-38 281 -50 281 -106 0 -64 -69 -72 -282 -34 -83 15 -105 16 -143 5 -52 -15
-50 -30 3 -30 20 0 100 -7 177 -16 118 -14 147 -15 185 -4 25 8 48 13 53 12 4
-1 7 6 8 16 0 13 3 12 12 -6 14 -30 -3 -42 -55 -38 -21 2 -38 0 -38 -4 0 -5
-41 -15 -91 -25 -101 -18 -169 -14 -389 27 -78 14 -160 21 -255 22 l-139 1
-19 33 c-11 19 -22 60 -24 96 l-5 63 43 17 c98 40 244 45 405 16z m921 -21
c19 -19 -5 -55 -58 -83 -48 -27 -114 -52 -219 -85 l-55 -18 1 56 1 55 119 42
c120 42 191 53 211 33z"/>
</g>
</svg>
